<svg version="1.1" id="Layer_1" xmlns="http://www.w3.org/2000/svg" xmlns:xlink="http://www.w3.org/1999/xlink" x="0px" y="0px"
	 width="100%" viewBox="0 0 50 50" enable-background="new 0 0 50 50" xml:space="preserve">
<path fill="#8AB7CC" opacity="1.000000" stroke="none" 
	d="
M26.000059,51.000000 
	C17.333384,51.000000 9.166719,51.000000 1.000041,51.000000 
	C1.000027,34.333355 1.000027,17.666708 1.000013,1.000047 
	C17.666643,1.000031 34.333286,1.000031 50.999947,1.000016 
	C50.999962,17.666639 50.999962,34.333279 50.999981,50.999962 
	C42.833355,51.000000 34.666714,51.000000 26.000059,51.000000 
M34.994850,25.301231 
	C34.637974,24.799990 34.281094,24.298748 34.026577,23.148731 
	C33.982845,21.222975 38.482265,20.921757 36.026878,17.476311 
	C33.929192,8.054964 32.926079,7.584297 18.201807,9.192620 
	C17.430815,12.064670 16.642513,15.001192 15.371167,18.420847 
	C15.973816,20.326155 16.576466,22.231464 17.123415,24.543751 
	C17.123415,24.543751 17.155115,24.953501 16.985373,25.372271 
	C16.985373,25.372271 16.900547,25.816099 16.372576,26.333122 
	C16.388416,29.229046 16.110262,32.165676 16.503990,35.009277 
	C16.886538,37.772144 18.301191,39.640335 21.707293,37.642941 
	C24.700798,37.468704 27.694305,37.294468 31.265881,37.405972 
	C33.264812,39.005722 34.699722,39.051510 35.497417,35.676006 
	C35.717743,35.126175 35.938065,34.576347 36.687283,33.515949 
	C36.488022,31.666317 36.288761,29.816685 36.001759,27.374821 
	C35.695641,26.894499 35.389523,26.414175 34.994850,25.301231 
z"/>
<path fill="#FEEBBB" opacity="1.000000" stroke="none" 
	d="
M17.179115,24.136772 
	C16.576466,22.231464 15.973816,20.326155 16.022699,18.207378 
	C17.769003,17.976532 18.863775,17.959152 20.145815,18.214058 
	C21.859978,18.492767 23.386869,18.499195 25.270069,18.578121 
	C26.104309,18.578653 26.582241,18.506685 27.203100,18.656628 
	C28.937304,18.906673 30.528578,18.934809 32.439651,18.924255 
	C33.787415,18.613049 34.815376,18.340530 35.843342,18.068010 
	C38.482265,20.921757 33.982845,21.222975 33.978409,23.534416 
	C33.930244,23.920103 33.967403,24.037088 33.629730,24.049919 
	C32.180096,25.658985 31.068138,27.255220 29.786465,28.980932 
	C29.542225,29.231165 29.376110,29.413445 29.408836,29.462164 
	C29.560745,29.688320 29.767775,29.877455 29.969082,30.049829 
	C29.983095,30.019817 29.917747,30.008957 30.027348,30.223351 
	C30.321728,30.739119 30.590837,30.889587 31.181911,30.948532 
	C31.419546,31.007915 31.904404,31.077925 31.944199,31.469263 
	C31.551933,33.613811 31.119873,35.367023 30.687813,37.120232 
	C27.694305,37.294468 24.700798,37.468704 21.366833,37.011097 
	C20.709721,34.605808 20.393072,32.832359 20.331314,31.004608 
	C20.753130,30.902103 20.920053,30.853901 21.309175,30.758791 
	C21.799017,30.541908 21.983475,30.306679 22.045538,30.007118 
	C22.006332,30.008038 22.008570,30.086439 22.220531,29.985014 
	C22.725662,29.695282 22.859823,29.427391 22.759678,28.774403 
	C21.803112,27.308928 20.921843,26.148970 19.862694,24.719421 
	C18.849581,24.345480 18.014347,24.241127 17.179115,24.136772 
z"/>
<path fill="#F2BD7D" opacity="1.000000" stroke="none" 
	d="
M19.958546,17.941772 
	C18.863775,17.959152 17.769003,17.976532 16.264223,17.965813 
	C16.642513,15.001192 17.430815,12.064670 18.201807,9.192620 
	C32.926079,7.584297 33.929192,8.054964 35.935112,17.772160 
	C34.815376,18.340530 33.787415,18.613049 32.390099,18.637836 
	C30.335171,14.840608 28.692841,16.100521 27.060173,18.434717 
	C26.582241,18.506685 26.104309,18.578653 25.064510,18.342112 
	C23.037422,15.554693 21.519476,15.684755 19.958546,17.941772 
z"/>
<path fill="#EEB372" opacity="1.000000" stroke="none" 
	d="
M20.076422,31.058914 
	C20.393072,32.832359 20.709721,34.605808 21.170273,36.750332 
	C18.301191,39.640335 16.886538,37.772144 16.503990,35.009277 
	C16.110262,32.165676 16.388416,29.229046 16.671339,26.438103 
	C18.005541,28.048361 19.040981,29.553638 20.076422,31.058914 
z"/>
<path fill="#ECB170" opacity="1.000000" stroke="none" 
	d="
M30.976847,37.263100 
	C31.119873,35.367023 31.551933,33.613811 32.213009,31.301390 
	C33.291599,29.837914 34.141174,28.933649 35.265587,28.016430 
	C35.723454,27.991331 35.906479,27.979191 36.089500,27.967052 
	C36.288761,29.816685 36.488022,31.666317 36.206665,33.903812 
	C35.486099,34.527504 35.246155,34.763336 34.910072,35.088211 
	C34.658825,35.430313 34.707264,35.643570 34.984447,35.870575 
	C35.009640,35.924118 35.025475,36.041401 35.025475,36.041401 
	C34.699722,39.051510 33.264812,39.005722 30.976847,37.263100 
z"/>
<path fill="#E7A661" opacity="1.000000" stroke="none" 
	d="
M20.331314,31.004608 
	C19.040981,29.553638 18.005541,28.048361 16.935326,26.179592 
	C16.900547,25.816099 16.985373,25.372271 17.430288,25.176943 
	C18.596994,24.984079 19.318783,24.986546 20.040573,24.989010 
	C20.921843,26.148970 21.803112,27.308928 22.597961,28.920549 
	C22.317211,29.591503 22.149555,29.829578 22.008570,30.086439 
	C22.008570,30.086439 22.006332,30.008038 21.863283,30.120918 
	C21.479412,30.391508 21.268328,30.582142 21.086977,30.805698 
	C20.920053,30.853901 20.753130,30.902103 20.331314,31.004608 
z"/>
<path fill="#E9994D" opacity="1.000000" stroke="none" 
	d="
M19.862694,24.719421 
	C19.318783,24.986546 18.596994,24.984079 17.515160,24.967558 
	C17.155115,24.953501 17.123415,24.543751 17.151264,24.340263 
	C18.014347,24.241127 18.849581,24.345480 19.862694,24.719421 
z"/>
<path fill="#F4A859" opacity="1.000000" stroke="none" 
	d="
M33.927231,23.858805 
	C34.281094,24.298748 34.637974,24.799990 35.010212,25.638821 
	C35.025574,25.976410 34.967468,26.016693 34.776810,25.808208 
	C34.379902,25.078846 34.173653,24.557966 33.967403,24.037088 
	C33.967403,24.037088 33.930244,23.920103 33.927231,23.858805 
z"/>
<path fill="#F4A859" opacity="1.000000" stroke="none" 
	d="
M36.045631,27.670937 
	C35.906479,27.979191 35.723454,27.991331 35.263409,27.680653 
	C34.980083,26.910784 34.973778,26.463739 34.967468,26.016693 
	C34.967468,26.016693 35.025574,25.976410 35.054489,25.955132 
	C35.389523,26.414175 35.695641,26.894499 36.045631,27.670937 
z"/>
<path fill="#F8B364" opacity="1.000000" stroke="none" 
	d="
M35.006210,34.999165 
	C35.246155,34.763336 35.486099,34.527504 35.942215,34.159096 
	C35.938065,34.576347 35.717743,35.126175 35.261444,35.858704 
	C35.025475,36.041401 35.009640,35.924118 35.000130,35.667110 
	C34.990623,35.410103 35.006210,34.999165 35.006210,34.999165 
z"/>
<path fill="#E7A45F" opacity="1.000000" stroke="none" 
	d="
M34.776810,25.808208 
	C34.973778,26.463739 34.980083,26.910784 34.988571,27.693607 
	C34.141174,28.933649 33.291599,29.837914 32.173214,30.910051 
	C31.904404,31.077925 31.419546,31.007915 31.032610,30.778610 
	C30.424387,30.340422 30.181746,30.160305 29.917747,30.008957 
	C29.917747,30.008957 29.983095,30.019817 29.973299,29.742569 
	C29.961063,29.260698 29.958622,29.056078 29.956181,28.851456 
	C31.068138,27.255220 32.180096,25.658985 33.629730,24.049919 
	C34.173653,24.557966 34.379902,25.078846 34.776810,25.808208 
z"/>
<path fill="#FFF2C1" opacity="1.000000" stroke="none" 
	d="
M20.145815,18.214058 
	C21.519476,15.684755 23.037422,15.554693 24.708204,18.269613 
	C23.386869,18.499195 21.859978,18.492767 20.145815,18.214058 
z"/>
<path fill="#FFF0C0" opacity="1.000000" stroke="none" 
	d="
M27.203100,18.656628 
	C28.692841,16.100521 30.335171,14.840608 32.070305,18.676525 
	C30.528578,18.934809 28.937304,18.906673 27.203100,18.656628 
z"/>
<path fill="#E49C53" opacity="1.000000" stroke="none" 
	d="
M22.220531,29.985014 
	C22.149555,29.829578 22.317211,29.591503 22.673260,29.226067 
	C22.859823,29.427391 22.725662,29.695282 22.220531,29.985014 
z"/>
<path fill="#E39D54" opacity="1.000000" stroke="none" 
	d="
M29.786465,28.980934 
	C29.958622,29.056078 29.961063,29.260698 29.959286,29.772579 
	C29.767775,29.877455 29.560745,29.688320 29.408836,29.462164 
	C29.376110,29.413445 29.542225,29.231165 29.786465,28.980934 
z"/>
<path fill="#E49C53" opacity="1.000000" stroke="none" 
	d="
M21.309175,30.758791 
	C21.268328,30.582142 21.479412,30.391508 21.902489,30.119999 
	C21.983475,30.306679 21.799017,30.541908 21.309175,30.758791 
z"/>
<path fill="#E39D54" opacity="1.000000" stroke="none" 
	d="
M30.027348,30.223351 
	C30.181746,30.160305 30.424387,30.340422 30.794975,30.719227 
	C30.590837,30.889587 30.321728,30.739119 30.027348,30.223351 
z"/>
<path fill="#F7BC70" opacity="1.000000" stroke="none" 
	d="
M34.910072,35.088211 
	C35.006210,34.999165 34.990623,35.410103 34.974937,35.613571 
	C34.707264,35.643570 34.658825,35.430313 34.910072,35.088211 
z"/>
</svg>